<svg width="256" height="256" viewBox="0 0 256 256" fill="none" xmlns="http://www.w3.org/2000/svg">
  <defs>
    <radialGradient id="core" cx="0" cy="0" r="1" gradientUnits="userSpaceOnUse" gradientTransform="translate(128 128) rotate(90) scale(100)">
      <stop stop-color="#FFFFFF"/>
      <stop offset="0.24" stop-color="#7DD3FC"/>
      <stop offset="0.58" stop-color="#2563EB"/>
      <stop offset="1" stop-color="#08142D"/>
    </radialGradient>
    <linearGradient id="ring" x1="46" y1="44" x2="210" y2="213" gradientUnits="userSpaceOnUse">
      <stop stop-color="#4ECDC4"/>
      <stop offset="0.45" stop-color="#2563EB"/>
      <stop offset="1" stop-color="#F43F70"/>
    </linearGradient>
    <filter id="glow" x="-20" y="-20" width="296" height="296" filterUnits="userSpaceOnUse" color-interpolation-filters="sRGB">
      <feGaussianBlur stdDeviation="8" result="blur"/>
      <feColorMatrix in="blur" type="matrix" values="0 0 0 0 0.078 0 0 0 0 0.757 0 0 0 0 0.737 0 0 0 0.7 0"/>
      <feBlend in="SourceGraphic"/>
    </filter>
  </defs>
  <circle cx="128" cy="128" r="100" fill="#06111F"/>
  <circle cx="128" cy="128" r="94" stroke="url(#ring)" stroke-width="7" stroke-dasharray="36 16"/>
  <circle cx="128" cy="128" r="72" fill="url(#core)" filter="url(#glow)"/>
  <path d="M76 128C100 96 156 96 180 128C156 160 100 160 76 128Z" fill="rgba(255,255,255,0.16)" stroke="#DDFCF8" stroke-width="6"/>
  <circle cx="128" cy="128" r="23" fill="#06111F" stroke="#4ECDC4" stroke-width="7"/>
  <path d="M128 58V34M128 222V198M58 128H34M222 128H198" stroke="#4ECDC4" stroke-width="9" stroke-linecap="round"/>
  <path d="M82 82L66 66M190 190L174 174M174 82L190 66M66 190L82 174" stroke="#F43F70" stroke-width="8" stroke-linecap="round"/>
  <path d="M101 174H155L166 195H90L101 174Z" fill="#102B55" stroke="#4ECDC4" stroke-width="5" stroke-linejoin="round"/>
  <path d="M94 171C108 184 148 184 162 171" stroke="#DDFCF8" stroke-width="5" stroke-linecap="round"/>
</svg>
